# xmcd CD database file generated by OrangeCD 5.2
#
# Track frame offsets:
#	150
#	18628
#	32135
#	44645
#	66657
#	79990
#	106779
#	124132
#	140312
#	154121
#	188167
#	222557
#	249167
#	284523
#	294802
#	308598
#
# Disc length: 4303 seconds
#
# Revision: 0
# Processed by: cddbd v1.5.1PL2 Copyright (c) Steve Scherf et al.
# Submitted via: OrangeCD 5.2
#
DISCID=ec10cd10
DTITLE=Gary Moore - Once In A Blue Mood, (Liberated Boot - Italy 1992)
DYEAR=1992
DGENRE=Rock
TTITLE0=Further On Up The Road
TTITLE1=Left Me With The Blues
TTITLE2=Mean Cruel Woman
TTITLE3=The Sky Is Crying
TTITLE4=The Stumble
TTITLE5=All Time Low
TTITLE6=Woke Up This Morning
TTITLE7=Movin' Down The Road
TTITLE8=Don't Start Me Talking
TTITLE9=Once In A Blue Mood
TTITLE10=Blues For Narada
TTITLE11=Danger Zone (BBM)
TTITLE12=World Keeps On Turning (BBM)
TTITLE13=The Same Way (Acoustic)
TTITLE14=Stop Messin' Around (Acoustic)
TTITLE15=World Keeps on Turning (Acoustic)
EXTD=
EXTT0=
EXTT1=
EXTT2=
EXTT3=
EXTT4=
EXTT5=
EXTT6=
EXTT7=
EXTT8=
EXTT9=
EXTT10=
EXTT11=
EXTT12=
EXTT13=
EXTT14=
EXTT15=
PLAYORDER=
